/* XPM */
static char * S_M_A_R_T__unknown_xpm[] = {
"32 32 52 1",
" 	c None",
".	c #00FFEA",
"+	c #001A00",
"@	c #001700",
"#	c #000000",
"$	c #000E00",
"%	c #001100",
"&	c #001800",
"*	c #001300",
"=	c #003400",
"-	c #002500",
";	c #002300",
">	c #001600",
",	c #003100",
"'	c #001F00",
")	c #001D00",
"!	c #002000",
"~	c #00D8EC",
"{	c #0061F6",
"]	c #001BFB",
"^	c #0005FD",
"/	c #0062F6",
"(	c #00E1EB",
"_	c #0096F1",
":	c #0000FF",
"<	c #0013FC",
"[	c #00D9EC",
"}	c #001FFB",
"|	c #0099F1",
"1	c #00E6EB",
"2	c #00F3EA",
"3	c #00BBEE",
"4	c #0026FB",
"5	c #004EF7",
"6	c #00F6E9",
"7	c #00CCED",
"8	c #000DFC",
"9	c #00F2EA",
"0	c #0087F2",
"a	c #0050F7",
"b	c #008AF2",
"c	c #0001FD",
"d	c #0009FD",
"e	c #00D4EC",
"f	c #0070F5",
"g	c #0008FD",
"h	c #00ADEF",
"i	c #008DF2",
"j	c #001CFB",
"k	c #00C9ED",
"l	c #0002FD",
"m	c #00FCE9",
"................................",
"................................",
"..+@#.$...#....#....###%..#####.",
".&....##.##...#.#...#...*...#...",
".=....#.#.#...-.;...#...>...#...",
"..#,..#...#..#...#..###*....#...",
"....'.#...#..*###*..#..#....#...",
".'..).#...#.#.....#.#...#...#...",
"..!%..#...#.=.....#.#...#...#...",
"................................",
"................................",
"................................",
".............~{]^]/(............",
"............_^:::::<[...........",
"............:}|1234:5...........",
"............/6....7:8...........",
"..................9:8...........",
"..................0:a...........",
".................bcde...........",
"................f:gh............",
"...............i:j7.............",
"...............}:k..............",
"...............l:m..............",
"...............::...............",
"................................",
"................................",
"...............::...............",
"...............::...............",
"...............::...............",
"................................",
"................................",
"................................"};
