/* XPM */
static char * S_M_A_R_T__warning_xpm[] = {
"32 32 193 2",
"  	c None",
". 	c #00FFFF",
"+ 	c #02FFFF",
"@ 	c #4C0000",
"# 	c #C90000",
"$ 	c #C20000",
"% 	c #620000",
"& 	c #433D3D",
"* 	c #EE3131",
"= 	c #FE0000",
"- 	c #E80000",
"; 	c #2D0000",
"> 	c #05FFFF",
", 	c #C24C4C",
"' 	c #FD0000",
") 	c #F40000",
"! 	c #7C0000",
"~ 	c #0EFFFF",
"{ 	c #04FFFF",
"] 	c #915656",
"^ 	c #F60000",
"/ 	c #EF0000",
"( 	c #540000",
"_ 	c #01FFFF",
": 	c #643F3F",
"< 	c #EB0000",
"[ 	c #FC0000",
"} 	c #F00000",
"| 	c #F10000",
"1 	c #BE0000",
"2 	c #290000",
"3 	c #126060",
"4 	c #DC0000",
"5 	c #FFDBDB",
"6 	c #8D0000",
"7 	c #F70000",
"8 	c #BA0000",
"9 	c #0CFFFF",
"0 	c #734E4E",
"a 	c #FF8D8D",
"b 	c #FFFCFC",
"c 	c #FFF4F4",
"d 	c #B40000",
"e 	c #AA0000",
"f 	c #1E0000",
"g 	c #3D3939",
"h 	c #B10000",
"i 	c #FFFFFF",
"j 	c #F1F1F1",
"k 	c #FFDEDE",
"l 	c #C50000",
"m 	c #EC0000",
"n 	c #420000",
"o 	c #134040",
"p 	c #D27171",
"q 	c #F80000",
"r 	c #000000",
"s 	c #FAF7F7",
"t 	c #FFC7C7",
"u 	c #D80000",
"v 	c #B70000",
"w 	c #200000",
"x 	c #AD7F7F",
"y 	c #0E0000",
"z 	c #FFFDFD",
"A 	c #C00000",
"B 	c #BD0000",
"C 	c #10C0C0",
"D 	c #4D4545",
"E 	c #D50000",
"F 	c #010000",
"G 	c #FFDCDC",
"H 	c #EE0000",
"I 	c #FA0000",
"J 	c #03FFFF",
"K 	c #09FFFF",
"L 	c #910000",
"M 	c #DF7575",
"N 	c #FFF3F3",
"O 	c #FFF2F2",
"P 	c #4B0000",
"Q 	c #07FFFF",
"R 	c #453737",
"S 	c #E60000",
"T 	c #FF8F8F",
"U 	c #DFD1D1",
"V 	c #FFFEFE",
"W 	c #ED0000",
"X 	c #F90000",
"Y 	c #AB0000",
"Z 	c #1B1919",
"` 	c #BF0000",
" .	c #FF3535",
"..	c #FFE0E0",
"+.	c #EDEDED",
"@.	c #FFFBFB",
"#.	c #FF8686",
"$.	c #E00000",
"%.	c #210000",
"&.	c #A24E4E",
"*.	c #FF2B2B",
"=.	c #FFC3C3",
"-.	c #B50000",
";.	c #0AFFFF",
">.	c #118B8B",
",.	c #A17979",
"'.	c #E50000",
").	c #FFBDBD",
"!.	c #FCFCFC",
"~.	c #6F0000",
"{.	c #5F4848",
"].	c #EA0000",
"^.	c #FB0000",
"/.	c #710000",
"(.	c #E9E9E9",
"_.	c #FFFAFA",
":.	c #8F0000",
"<.	c #CF0000",
"[.	c #1C0000",
"}.	c #2B2626",
"|.	c #CE2626",
"1.	c #DFDFDF",
"2.	c #B60000",
"3.	c #970000",
"4.	c #160101",
"5.	c #7F4F4F",
"6.	c #590000",
"7.	c #FEFEFE",
"8.	c #CA0000",
"9.	c #440000",
"0.	c #3D3535",
"a.	c #D30000",
"b.	c #8E0000",
"c.	c #F30000",
"d.	c #490000",
"e.	c #2F2E2E",
"f.	c #A30000",
"g.	c #FFDFDF",
"h.	c #FFEBEB",
"i.	c #D20000",
"j.	c #FF0000",
"k.	c #830000",
"l.	c #E70000",
"m.	c #340000",
"n.	c #FFC8C8",
"o.	c #FF6363",
"p.	c #BC0000",
"q.	c #FF7272",
"r.	c #FFF1F1",
"s.	c #0D0000",
"t.	c #FFBBBB",
"u.	c #FF3939",
"v.	c #FFD6D6",
"w.	c #C5C5C5",
"x.	c #E0E0E0",
"y.	c #F0F0F0",
"z.	c #FFF9F9",
"A.	c #FF6E6E",
"B.	c #FFA1A1",
"C.	c #B9B0B0",
"D.	c #9B9494",
"E.	c #E7DCDC",
"F.	c #FFD7D7",
"G.	c #F50000",
"H.	c #CC0000",
"I.	c #C60000",
"J.	c #C70000",
"K.	c #C40000",
"L.	c #B80000",
"M.	c #CD0000",
"N.	c #DB0000",
"O.	c #F20000",
"P.	c #E90000",
"Q.	c #DA0000",
"R.	c #870000",
"S.	c #370000",
"T.	c #310000",
"U.	c #360000",
"V.	c #4E0000",
"W.	c #6B0000",
"X.	c #6E0000",
"Y.	c #810000",
"Z.	c #850000",
"`.	c #800000",
" +	c #7A0000",
".+	c #730000",
"++	c #840000",
"@+	c #860000",
"#+	c #890000",
"$+	c #950000",
"%+	c #8C0000",
"&+	c #770000",
"*+	c #170000",
". . . . . . . . . . . . . + @ # $ % . . . . . . . . . . . . . . ",
". . . . . . . . . . . . . & * = - ; . . . . . . . . . . . . . . ",
". . . . . . . . . . . . > , ' = ) ! ~ . . . . . . . . . . . . . ",
". . . . . . . . . . . { ] ^ = = = / ( _ . . . . . . . . . . . . ",
". . . . . . . . . . _ : < = [ # } | 1 2 . . . . . . . . . . . . ",
". . . . . . . . . . 3 4 = = 4 5 6 7 = 8 9 + . . . . . . . . . . ",
". . . . . . . . . _ 0 [ = [ a b c d ' ^ e f . . . . . . . . . . ",
". . . . . . . . . g * = = h i i j k l ^ m n _ . . . . . . . . . ",
". . . . . . . . o p = = q i i r r s t u [ v w > . . . . . . . . ",
". . . . . . . > x ' = = i i y r r r z A ' q B C _ . . . . . . . ",
". . . . . . . D | = = E i i F r r r i G H = I 6 J . . . . . . . ",
". . . . . . K L [ = ) M i N r r r r i O B = = } P Q . . . . . . ",
". . . . . + R S = ^ T U i V r r r r i V z W = X Y Q _ . . . . . ",
". . . . + Z ` ' =  ...+.i i r r r r i i @.#.[ = $.%._ . . . . . ",
". . . . 9 &.q = *.=.z i i i r r r r i i i i < = ' -.;.. . . . . ",
". . . >.,.W = '.).z i i i i r r r r !.i i @.i ^ = 7 ~.J . . . . ",
". . _ {.].= ^./.b i i (.i i r r r r j i i i _.:.q ^.<.[.. . . . ",
". . }.|.= = $ _.i i i 1.i i r r r r j i i i i z 2.' ^ 3.4.J . . ",
". + 5.q = ) 6.i i i i i i i i r r i 7.i i i i i i $.' X 8.9.. . ",
"+ 0.a.= = e z i i i i i i i i r r i i i i i i i z b.[ = c.d.. . ",
"e.f.' = m g.i i i i i i i i i i i i i i i i i i i h.i.= = A %.j.",
"k.X = I k.N i i i i i i i i i r r i i i i i i i i V ..l.= ' v m.",
"c.j.= W n.V i i i i i i i i r r r r i i i i i i i i c o.j.= ^.p.",
"= = ' q.r.i i i i i i i i i r s.r F 7.i i i i i i i V t.j.j.= / ",
"= = u.v.V i i i i i i i i i w.r r x.y.i i i i i i i i z.A.' j.X ",
"= ^.B.r.N N N N N N N i i i C.D.C.E.N N N N N N N N N O F.o.G.q ",
"I ^.I I I I ^ I ].4 H.I.I.I.I.I.I.I.I.I.I.I.I.I.J.K.L.v M.N.c.O.",
"' ) P.- - P.| X ^ ^ I I I I I I I I I I I I I ^.^.^.' ' [ [ 7 Q.",
"l.R.S.T.T.U.V.~.W.X.Y.Z.`. +.+++`.`.Z.@+@+@+@+@+@+#+$+3.:.%+&+d.",
"( *+. . . . _ J + + + _ _ . . . . . _ _ + + + + + + J J J J + + ",
"+ . . . . . . . . . . . . . . . . . . . . . . . . . . . . . . . ",
". . . . . . . . . . . . . . . . . . . . . . . . . . . . . . . . "};
