/* XPM */
static char * S_M_A_R_T__OK_xpm[] = {
"32 32 46 1",
" 	c None",
".	c #00FF00",
"+	c #001A00",
"@	c #001700",
"#	c #000000",
"$	c #000E00",
"%	c #001100",
"&	c #001800",
"*	c #001300",
"=	c #003400",
"-	c #002500",
";	c #00FC00",
">	c #002300",
",	c #001600",
"'	c #003100",
")	c #001F00",
"!	c #00F700",
"~	c #00F000",
"{	c #001D00",
"]	c #002000",
"^	c #00F100",
"/	c #000C00",
"(	c #009D00",
"_	c #009200",
":	c #00F800",
"<	c #009A00",
"[	c #00C900",
"}	c #00F900",
"|	c #00E000",
"1	c #00E900",
"2	c #00E600",
"3	c #000600",
"4	c #00FE00",
"5	c #00FA00",
"6	c #000500",
"7	c #00F200",
"8	c #001B00",
"9	c #FFFFFF",
"0	c #008E00",
"a	c #00F500",
"b	c #008D00",
"c	c #00D900",
"d	c #00F400",
"e	c #000900",
"f	c #00EF00",
"g	c #00A100",
"................................",
"................................",
"..+@#.$...#....#....###%..#####.",
".&....##.##...#.#...#...*...#...",
".=....#.#.#...-;>...#...,...#...",
"..#'..#...#..#...#..###*....#...",
"....).#!..#.!*###*!.#..#~...#...",
".)..{.#...#.#.....#.#...#...#...",
"..]%..#...#.=.....#.#...#...#...",
"................................",
"................................",
".........^#/#^..#..(#...........",
".........#_:<#..#.[#}...........",
".........]~.|{..#1#2............",
".........34.56..##..............",
".........+7.~8..#_#.......999...",
".........#0ab#..#.c#d....9999...",
".........~#e#f..#..g#...9999....",
".......................9999.....",
"......................9999......",
".....................9999.......",
"....................9999........",
"...................9999.........",
"........99........9999..........",
".......9999......9999...........",
"........9999....9999............",
".........9999..9999.............",
"..........99999999..............",
"...........999999...............",
"............9999................",
".............99.................",
"................................"};
